<svg width="584" height="631" viewBox="0 0 584 631" fill="none" xmlns="http://www.w3.org/2000/svg">
<path d="M336.697 128.553C334.702 129.12 334.183 148.437 333.28 255.832C332.584 338.682 331.948 353.454 328.504 366.829C325.908 376.906 320.7 388.373 316.396 393.485C310.95 399.953 297.21 406.778 285.706 408.73C282.201 409.324 255.754 410.444 226.935 411.218C191.801 412.163 174.173 412.991 173.435 413.731C171.876 415.294 172.027 467.285 173.595 468.852C175.262 470.518 250.667 471.203 279.834 469.816C326.094 467.616 345.612 462.336 365.219 446.715C390.133 426.866 403.792 400.003 407.905 362.761C409.374 349.457 409.934 130.683 408.502 129.249C407.642 128.387 339.605 127.728 336.697 128.553Z" fill="#710101"/>
<path fill-rule="evenodd" clip-rule="evenodd" d="M145.305 3.01002C102.235 11.8712 65.4731 34.5603 37.6491 69.4543C22.5751 88.3578 7.77805 120.434 3.30305 143.905C0.619046 157.986 -0.353948 246.311 0.112052 433.732C0.534052 603.853 0.538055 604.145 2.62105 608.85C9.16905 623.643 24.8671 632.649 38.7891 629.596C49.4621 627.255 59.2121 619.706 64.1881 609.932C65.6451 607.07 65.8981 586.514 66.8231 395.573C67.3861 279.416 68.2691 177.633 68.7851 169.389C69.8111 153.004 71.586 145.621 77.495 133.153C85.018 117.282 99.5941 98.795 111.838 89.597C118.721 84.4264 136.623 75.1285 145.518 72.1045C157.189 68.1371 167.513 67.8054 295.834 67.2807L419.334 66.776L431.267 70.4227C452.423 76.8874 466.585 84.8971 480.61 98.3293C497.465 114.473 506.207 129.567 513.299 154.774L515.834 163.784L515.762 260.525C515.722 313.732 515.31 372.78 514.845 391.742C514.096 422.287 513.753 427.132 511.838 434.214C507.135 451.61 497.606 467.781 483.37 482.528C469.71 496.68 455.453 505.394 434.334 512.504L425.334 515.533L299.834 516.495C290.495 516.567 281.814 516.631 273.743 516.69C177.859 517.396 168.002 517.469 162.055 522.327C161.373 522.884 160.743 523.503 160.041 524.194C159.525 524.701 158.97 525.247 158.327 525.834C142.931 539.896 142.498 560.402 157.285 575.166L157.47 575.351C159.05 576.929 160.323 578.201 161.769 579.231C167.773 583.509 176.752 583.612 223.024 584.142L224.334 584.157C252.384 584.479 310.434 584.317 353.334 583.798L431.334 582.852L442.472 580.294C461.714 575.875 481.129 567.676 499.727 556.117C538.589 531.963 568.863 489.058 578.691 444.208C583.316 423.102 583.319 423.007 583.266 292.807C583.212 159.377 583.127 156.926 577.838 136.426C566.41 92.1324 540.234 54.8919 502.909 29.8244C484.751 17.6294 468.999 10.8139 442.194 3.55766L429.054 0L294.194 0.0619592L159.334 0.123918L145.305 3.01002Z" fill="black"/>
</svg>
