<svg width="910" height="842" viewBox="0 0 910 842" fill="none" xmlns="http://www.w3.org/2000/svg">
<path fill-rule="evenodd" clip-rule="evenodd" d="M325 0.665658C316.872 1.41066 311.285 2.38066 297.5 5.44366C290.553 6.98666 274.062 13.1857 264.568 17.8227C228.858 35.2647 198.853 65.1507 182.158 99.9037C171.573 121.938 166.674 138.76 164.526 160.449C163.133 174.506 163.155 599.387 164.549 605.429C167.636 618.818 182.587 630.593 196.5 630.593C200.975 630.593 209.504 628.155 213.5 625.733C217.449 623.34 224.315 615.858 226.762 611.28L229 607.093L229.568 387.093C230.17 153.844 229.941 165.236 234.376 148.04C235.58 143.371 240.636 131.221 243.631 125.797C250.264 113.786 263.754 97.7297 273 90.8397C274.65 89.6107 277.575 87.4337 279.5 86.0027C283.983 82.6697 300.506 74.4657 307.009 72.3437C323.811 66.8617 317.278 67.0927 455.5 67.0927H583L591.886 69.3657C619.101 76.3257 640.113 90.0667 656.538 111.644C666.156 124.277 672.084 136.869 676.757 154.589L679 163.093V292.093C679 413.76 678.896 421.491 677.174 428.093C674.764 437.337 671.419 447.845 670.489 449.093C670.08 449.643 669.407 451.192 668.994 452.535C668.056 455.588 661.36 466.585 656.793 472.574C651.401 479.646 640.303 490.758 633 496.398C626.523 501.4 610.691 509.389 602 512.042C598.7 513.049 595.1 514.234 594 514.675C587.69 517.205 569.729 517.594 458.091 517.617C382.837 517.633 339.392 518.003 336.5 518.654C328.937 520.354 324.065 523.194 318.77 528.988C307.571 541.241 306.579 557.516 316.219 570.827C321.414 578.001 327.068 581.702 335.708 583.583C342.62 585.088 586.449 584.389 594 582.842C596.75 582.279 601.7 581.282 605 580.626C629.394 575.778 659.02 561.402 680 544.231C696.03 531.112 713.88 510.03 722.452 494.093C723.635 491.893 725.021 489.418 725.53 488.593C726.951 486.292 731.988 474.793 734.51 468.093C735.751 464.793 737.108 461.193 737.523 460.093C740.652 451.814 744.337 433.515 745.478 420.593C746.855 405 746.843 181.943 745.465 164.897C744.229 149.612 742.528 141.133 737.469 125.029C733.519 112.455 725.358 94.1837 720.39 86.7927C718.801 84.4277 717.5 82.2727 717.5 82.0037C717.5 81.7357 714.382 77.3707 710.571 72.3037C696.276 53.3007 678.187 36.9767 658.219 25.0587C652.261 21.5027 647.227 18.5927 647.032 18.5927C646.838 18.5927 643.376 17.0657 639.339 15.1997C627.443 9.69865 618.995 7.07966 596.5 1.91666C589.638 0.341657 578.157 0.180655 461.5 0.0186548C391.375 -0.0783452 329.95 0.212658 325 0.665658ZM498.454 129.148C497.972 129.729 497.411 176.178 497.206 232.648C496.84 332.891 496.424 347.044 493.419 361.593C489.819 379.015 484.415 390.893 477.24 397.155C474.908 399.19 469.738 402.384 465.75 404.254C458.908 407.462 456.069 408.307 444 410.727C441.25 411.279 416.05 411.969 388 412.26C351.148 412.644 336.796 413.11 336.265 413.942C334.946 416.009 335.354 468.047 336.7 469.393C338.241 470.934 435.875 471.091 455 469.582C485.16 467.203 501.634 463.509 513.794 456.397C516.431 454.855 518.827 453.593 519.119 453.593C520.595 453.593 534.712 442.037 539.51 436.9C547.294 428.567 548.495 427.006 553.615 418.57C563.527 402.24 569.328 382.255 571.462 357.093C572.07 349.916 572.484 301.778 572.49 237.312C572.498 148.832 572.263 129.439 571.177 129.023C568.407 127.96 499.342 128.079 498.454 129.148ZM278 685.827C265.528 688.888 260.397 693.542 257.142 704.747C252.915 719.301 257.929 736.624 268.006 742.276C274.088 745.688 284.236 747.172 291.87 745.765C299.905 744.284 303.467 742.479 307.788 737.696C312.803 732.145 314 727.789 314 715.093C314 705.178 313.742 703.6 311.389 699.093C307.754 692.132 302.304 688.217 293.469 686.222C285.52 684.427 283.877 684.385 278 685.827ZM27.75 687.255C26.817 687.632 26.5 692.205 26.5 705.31C26.5 732.123 25.656 733.585 9.646 734.526L0 735.093V739.593V744.093L12.732 744.373C23.702 744.614 25.984 744.385 29.232 742.72C38.826 737.8 40.5 732.606 40.5 707.758C40.5 694.496 40.148 688.641 39.3 687.793C38.127 686.62 30.234 686.253 27.75 687.255ZM50.8 688.019C50.36 688.804 50.126 701.854 50.281 717.019L50.562 744.593H70.377C87.015 744.593 90.739 744.321 93.596 742.895C98.032 740.682 100.079 738.081 101.59 732.732C103.045 727.581 101.763 722.698 97.857 718.511L95.448 715.929L97.415 713.428C98.497 712.052 100.155 708.997 101.098 706.639C102.565 702.974 102.63 701.823 101.549 698.722C99.504 692.857 97.601 690.542 93.172 688.531C89.561 686.892 86.487 686.634 70.3 686.615C55.131 686.597 51.448 686.862 50.8 688.019ZM149.686 687.307C148.414 687.55 145.376 689.662 142.936 691.999L138.5 696.25V703.471C138.5 711.782 139.957 715.356 144.735 718.764C147.689 720.871 149.282 721.127 161.442 721.446C177.028 721.855 179.803 722.868 179.302 727.969C178.824 732.843 176.143 733.561 158.372 733.578C140.821 733.595 140.156 733.846 140.685 740.273L141 744.093L161.249 744.364C179.714 744.611 181.838 744.461 185.347 742.671C187.463 741.592 189.929 739.587 190.828 738.216C195.193 731.554 194.485 719.732 189.418 714.665C186.041 711.288 182.507 710.619 167.973 710.604C159.624 710.596 156.405 710.215 154.723 709.036C151.783 706.977 151.882 703.12 154.955 700.048C157.354 697.648 157.764 697.593 173.255 697.593C190.538 697.593 191.5 697.303 191.5 692.093C191.5 686.769 190.765 686.581 170.55 686.729C160.347 686.804 150.959 687.064 149.686 687.307ZM202.734 687.402C201.752 688.045 201.527 694.493 201.734 716.162L202 744.093L208.25 744.391L214.5 744.688V735.075C214.5 721.685 214.575 721.593 225.476 721.593C231.503 721.593 234.644 721.997 235.191 722.843C235.636 723.531 236.225 728.593 236.5 734.093L237 744.093H243H249L249.266 716.715C249.46 696.836 249.21 688.949 248.355 687.918C247.551 686.95 245.562 686.594 242.089 686.796L237 687.093L236.726 697.093C236.392 709.27 236.101 709.593 225.5 709.593C214.899 709.593 214.608 709.27 214.274 697.093L214 687.093L209 686.833C206.25 686.69 203.43 686.946 202.734 687.402ZM322.669 687.89C321.783 688.957 321.537 696.534 321.734 716.715L322 744.093H328H334L334.294 735.643C334.455 730.995 335.073 726.608 335.666 725.893C336.436 724.965 340.075 724.587 348.372 724.571C361.803 724.546 366.651 722.994 370.599 717.46C372.658 714.573 373 712.941 373 706.015C373 698.708 372.733 697.587 370.198 694.264C365.156 687.653 363.227 687.132 342.435 686.768C327.164 686.5 323.657 686.699 322.669 687.89ZM394.604 688.606C388.208 690.906 386.012 692.728 383.164 698.093C381.197 701.8 381.039 703.632 381.02 723.093L381 744.093H387H393L393.25 735.093C393.662 720.246 391.952 721.593 410.397 721.593C427.56 721.593 428.75 721.236 428.75 716.093C428.75 710.949 427.561 710.593 410.378 710.593H394.5V708.058C394.5 706.663 395.241 704.392 396.146 703.01C398.798 698.963 403.578 697.593 415.04 697.593C420.703 697.593 426.048 697.32 426.918 696.986C428.02 696.563 428.5 695.079 428.5 692.093C428.5 689.107 428.02 687.623 426.918 687.2C426.048 686.866 419.636 686.609 412.668 686.629C402.717 686.657 398.843 687.081 394.604 688.606ZM436.167 687.26C435.8 687.626 435.5 700.698 435.5 716.307V744.688L441.75 744.391L448 744.093L448.266 716.162C448.473 694.483 448.249 688.051 447.266 687.427C445.734 686.455 437.102 686.325 436.167 687.26ZM455.25 687.673C452.758 689.125 452.884 695.193 455.434 696.558C456.498 697.127 460.548 697.593 464.434 697.593C470.482 697.593 471.506 697.845 471.538 699.343C471.559 700.305 471.543 709.979 471.502 720.84C471.455 733.124 471.831 741.344 472.498 742.59C473.387 744.25 474.591 744.593 479.535 744.593C482.816 744.593 485.591 744.481 485.703 744.343C485.814 744.205 486.152 733.743 486.453 721.093L487 698.093L504.232 697.819L521.463 697.546L521.732 720.819L522 744.093H528.5H535L535.268 720.843L535.537 697.593H543.818C548.926 697.593 552.56 697.133 553.3 696.393C555.254 694.439 554.783 688.815 552.566 687.628C549.936 686.221 457.671 686.263 455.25 687.673ZM559.606 687.965C558.801 688.936 558.545 697.352 558.734 716.715L559 744.093L564.896 744.397C568.138 744.565 571.239 744.254 571.785 743.708C573.386 742.107 572.917 688.474 571.294 687.444C569.162 686.092 560.854 686.462 559.606 687.965ZM584.606 687.965C583.801 688.936 583.545 697.352 583.734 716.715L584 744.093H590.5H597L597.123 727.093C597.19 717.743 597.302 709.531 597.373 708.843C597.609 706.526 599.118 707.57 600.883 711.27C601.848 713.293 605.427 719.705 608.837 725.52C612.248 731.335 615.617 737.218 616.325 738.593C619.335 744.44 619.837 744.709 627.145 744.391L634 744.093L634.5 718.503C634.775 704.428 634.773 691.603 634.496 690.003C634.052 687.447 633.517 687.054 630.091 686.773C627.946 686.598 625.135 686.719 623.845 687.042C621.5 687.631 621.5 687.635 621.5 704.553C621.5 714.756 621.103 721.72 620.5 722.093C619.95 722.433 619.5 722.336 619.5 721.878C619.5 721.42 617.432 717.455 614.904 713.069C612.376 708.682 608.307 701.493 605.861 697.093C603.415 692.693 600.672 688.531 599.766 687.843C597.484 686.112 586.068 686.204 584.606 687.965ZM659.442 687.541C652.46 689.66 647.414 694.295 644.378 701.379C641.516 708.053 641.45 724.205 644.258 730.593C646.592 735.902 650.526 740.056 655.741 742.716C659.118 744.439 661.401 744.61 677.754 744.366L696 744.093L696.276 728.227C696.465 717.376 696.189 711.923 695.404 710.977C693.879 709.14 669.515 708.978 667.7 710.793C667.04 711.453 666.5 713.687 666.5 715.758C666.5 720.432 668.355 721.593 675.827 721.593C681.931 721.593 682.5 722.195 682.5 728.656C682.5 732.023 682.144 732.644 679.895 733.209C677.211 733.882 666.128 733.159 663.488 732.137C662.669 731.821 660.987 730.078 659.75 728.265C657.845 725.475 657.5 723.645 657.5 716.346C657.5 706.563 658.355 703.559 662.136 700.055C664.7 697.678 665.286 697.593 679.064 697.593C686.914 697.593 694.048 697.32 694.918 696.986C696.827 696.253 697.104 689.597 695.3 687.793C693.935 686.428 663.809 686.216 659.442 687.541ZM752.155 688.422C751.245 689.428 750.5 690.581 750.5 690.986C750.5 691.39 749.376 694.178 748.003 697.181C746.629 700.184 744.351 705.443 742.94 708.867C741.529 712.291 739.698 716.668 738.87 718.593C738.042 720.518 736.898 723.218 736.327 724.593C735.756 725.968 734.695 728.443 733.969 730.093C727.624 744.502 727.591 744.021 734.953 744.399C740.186 744.668 741.122 744.426 742.681 742.399C743.657 741.131 744.466 739.366 744.478 738.478C744.49 737.59 745.433 735.677 746.573 734.228C748.586 731.668 748.958 731.593 759.586 731.593H770.526L772.642 736.343C773.806 738.955 775.085 741.768 775.484 742.593C775.996 743.653 778.157 744.18 782.854 744.389C789.394 744.68 789.5 744.644 789.5 742.125C789.5 740.718 789.068 738.784 788.539 737.829C787.057 735.152 783.346 726.739 774.978 707.093C770.762 697.193 766.594 688.531 765.715 687.843C763.18 685.859 754.125 686.245 752.155 688.422ZM794.7 687.793C793.295 689.198 792.975 741.217 794.358 743.398C794.925 744.292 797.044 744.606 801.093 744.398L807 744.093L807.074 726.352C807.139 710.821 807.582 706.111 808.833 707.676C809.525 708.543 816.381 720.333 819.542 726.093C821.352 729.393 824.482 734.793 826.497 738.093L830.16 744.093L837.338 744.387C844.037 744.661 844.573 744.528 845.369 742.387C845.838 741.125 846.151 728.476 846.064 714.278C845.934 692.912 845.656 688.304 844.453 687.543C842.347 686.21 834.107 686.386 832.7 687.793C831.866 688.627 831.5 693.912 831.5 705.126C831.5 714 831.187 721.573 830.804 721.956C830.421 722.339 829.374 721.176 828.477 719.373C826.395 715.183 817.643 699.806 813.092 692.343L809.586 686.593H802.743C798.754 686.593 795.4 687.093 794.7 687.793ZM856.671 687.887C855.783 688.957 855.537 696.506 855.734 716.715L856 744.093L873.985 744.367C886.344 744.555 892.913 744.262 894.985 743.428C900.2 741.331 904.078 737.78 907.089 732.347C909.785 727.48 910 726.319 910 716.593C910 701.409 906.706 694.483 897 689.256C893.424 687.33 891.139 687.067 875.437 686.769C861.019 686.496 857.659 686.696 856.671 687.887ZM292.149 698.231C297.339 700.694 299.772 706.257 299.727 715.561C299.666 728.476 296.136 733.627 286.818 734.4C276.643 735.243 271.969 730.507 270.835 718.203C270.161 710.889 271.639 704.77 275.06 700.704C278.648 696.44 286.102 695.361 292.149 698.231ZM83.977 698.764C88.424 700.791 88.589 707.852 84.214 708.95C80.877 709.787 65.887 709.95 64.614 709.163C63.428 708.431 63.093 701.818 64.107 699.175C64.593 697.907 66.372 697.593 73.06 697.593C77.65 697.593 82.563 698.12 83.977 698.764ZM354.428 699.056C359.249 701.549 359.985 707.199 356.008 711.176C353.66 713.524 352.981 713.652 344.258 713.381L335 713.093L334.7 706.756C334.52 702.944 334.867 699.855 335.572 699.006C337.193 697.053 350.624 697.089 354.428 699.056ZM889.95 699.696C893.584 701.84 893.865 702.422 895.416 711.009C896.696 718.099 894.902 727.867 891.779 730.801C889.717 732.739 888.036 733.148 880.897 733.447C875.227 733.684 871.969 733.397 870.977 732.574C869.796 731.594 869.503 728.415 869.514 716.721C869.532 696.542 869.035 697.593 878.559 697.593C884.717 697.593 887.146 698.041 889.95 699.696ZM762.5 709.034C762.5 709.766 763.172 711.653 763.994 713.229C766.878 718.759 766.227 719.593 759.025 719.593H752.55L753.168 716.343C753.508 714.555 754.333 711.968 755.002 710.593C755.672 709.218 756.545 706.743 756.943 705.093L757.667 702.093L760.084 704.899C761.413 706.442 762.5 708.303 762.5 709.034ZM85.277 723.15C88.256 725.236 88.256 729.95 85.277 732.036C82.052 734.295 64.976 734.275 64.107 732.011C63.326 729.977 63.326 725.209 64.107 723.175C64.976 720.911 82.052 720.891 85.277 723.15ZM71.244 782.425C64.449 784.821 60.08 788.708 56.92 795.167C54.455 800.204 54.17 801.859 54.201 810.944C54.241 822.509 55.888 828.04 60.898 833.431C65.887 838.799 70.86 840.809 80.482 841.347C94.769 842.147 103.685 838.136 109 828.52C111.872 823.324 111.999 822.582 111.968 811.093C111.931 797.342 110.49 793.216 103.746 787.555C95.727 780.822 81.955 778.648 71.244 782.425ZM553.5 782.3C539.895 786.982 533.525 800.196 536.292 817.995C537.979 828.845 541.144 833.969 548.767 838.193C553.652 840.9 554.732 841.093 565 841.093C574.443 841.093 576.586 840.779 580.143 838.877C592.414 832.314 597.172 816.656 592.509 798.18C590.79 791.369 584.017 784.702 576.412 782.333C569.626 780.22 559.587 780.205 553.5 782.3ZM122.5 782.363C121.675 782.654 120.669 783.388 120.265 783.993C119.385 785.311 119.237 836.744 120.107 839.011C120.557 840.184 122.114 840.593 126.132 840.593C133.157 840.593 133.316 840.128 132.755 821.282C132.512 813.136 132.607 805.302 132.966 803.873C133.567 801.48 134.018 801.939 138.676 809.684C141.458 814.309 144.151 818.993 144.66 820.093C145.169 821.193 146.129 822.993 146.793 824.093C147.457 825.193 149.526 828.793 151.392 832.093C153.258 835.393 155.481 838.656 156.333 839.343C158.31 840.938 168.717 840.976 170.3 839.393C171.175 838.518 171.5 830.787 171.5 810.868V783.543L169.07 782.62C166.047 781.47 159.914 782.39 158.394 784.22C157.611 785.164 157.385 790.378 157.669 800.944C158.031 814.409 157.892 816.247 156.541 815.891C155.124 815.519 150.034 807.538 144.118 796.411C140.203 789.049 136.496 783.522 135.207 783.13C132.749 782.381 123.951 781.85 122.5 782.363ZM196.5 782.607C187.513 783.151 185.232 784.121 181.359 789.045C178.172 793.097 178.02 806.132 181.111 810.279C185.076 815.598 187.82 816.444 202.81 816.966C211.367 817.264 217.168 817.902 218.06 818.643C220.231 820.444 219.906 826.305 217.566 827.558C216.469 828.145 208.863 828.593 200 828.593C191.137 828.593 183.531 829.041 182.434 829.628C180.2 830.824 179.705 837.398 181.7 839.393C182.543 840.236 188.154 840.593 200.541 840.593C224.476 840.593 229.229 839.069 232.896 830.221C235.935 822.885 234.1 813.052 228.996 809.324C225.626 806.863 217.602 805.526 207 805.657C197.973 805.77 194.633 805.164 193.265 803.166C191.86 801.114 192.513 797.659 194.689 795.632C196.694 793.763 198.161 793.593 212.254 793.593C220.942 793.593 228.473 793.143 229.566 792.558C231.874 791.323 232.355 783.858 230.181 783.024C228.248 782.282 206.351 782.011 196.5 782.607ZM237.924 782.893C236.124 783.903 236.028 790.957 237.795 792.423C238.507 793.014 242.444 793.631 246.545 793.795L254 794.093L254.5 816.093C254.775 828.193 255.364 838.656 255.809 839.343C256.902 841.031 265.943 840.97 267.358 839.265C268.067 838.409 268.556 830.13 268.73 816.015L269 794.093L275.5 793.837C286.408 793.408 286.655 793.27 286.303 787.811L286 783.093L262.674 782.593C249.845 782.318 238.708 782.453 237.924 782.893ZM293.509 782.785C291.512 783.524 291.474 784.144 291.734 811.817L292 840.093H298H304L304.285 830.436C304.616 819.217 305.356 818.093 312.401 818.093C317.535 818.093 319.031 819.173 322.154 825.132C330.168 840.423 330.5 840.755 337.435 840.387C341.749 840.158 343.054 839.71 343.309 838.367C343.49 837.418 341.183 832.546 338.182 827.541C332.533 818.118 332.103 815.688 335.792 814.054C341.014 811.742 344.294 799.441 341.587 792.322C339.897 787.876 334.781 783.751 330.232 783.164C323.217 782.26 295.697 781.976 293.509 782.785ZM353.75 782.681C351.511 783.525 351.5 783.633 351.516 805.311C351.532 826.048 351.641 827.284 353.786 831.07C355.412 833.943 357.643 835.869 361.814 838.001C367.024 840.666 368.49 840.948 376.794 840.882C390.307 840.774 397.518 837.163 401.078 828.721C402.154 826.168 402.5 820.268 402.5 804.439C402.5 783.672 402.485 783.523 400.25 782.681C398.028 781.844 392.033 782.146 390.361 783.179C389.888 783.472 389.5 791.087 389.5 800.103C389.5 820.543 388.473 826.029 384.151 828.664C380.223 831.059 373.307 831.168 369.828 828.889C365.246 825.886 364.501 822.263 364.485 802.875C364.476 793.095 364.122 784.547 363.698 783.879C362.704 782.315 356.656 781.586 353.75 782.681ZM462.896 782.451C459.749 783.044 458.5 784.665 458.5 788.156C458.5 789.982 459.063 791.826 459.75 792.256C460.438 792.685 464.6 793.274 469 793.565L477 794.093L477.5 816.093C477.775 828.193 478.364 838.656 478.809 839.343C479.274 840.061 481.69 840.593 484.488 840.593C492.58 840.593 492.582 840.587 492.46 816.512C492.401 805.032 492.638 795.178 492.986 794.616C493.334 794.053 496.911 793.593 500.937 793.593C509.425 793.593 510.785 792.624 510.315 786.913L510 783.093L487.396 782.593C474.965 782.318 463.94 782.254 462.896 782.451ZM516.029 783.561C514.74 784.986 514.5 789.325 514.5 811.231C514.5 830.765 514.818 837.645 515.78 838.962C516.787 840.338 518.232 840.646 522.53 840.403L528 840.093L528.266 812.159C528.416 796.399 528.137 783.83 527.626 783.319C525.883 781.576 517.67 781.748 516.029 783.561ZM602.395 783.698C600.646 785.447 600.511 787.404 600.537 810.61C600.553 824.374 600.99 836.751 601.508 838.114C602.355 840.342 603.013 840.593 608 840.593C612.978 840.593 613.646 840.339 614.486 838.129C615.022 836.719 615.16 829.243 614.808 820.666C614.344 809.379 614.501 805.296 615.442 804.163C616.51 802.876 617.043 803.308 619.096 807.125C627.706 823.128 635.428 836.548 637.347 838.843C639.563 841.494 651.022 841.354 652.465 838.659C654.055 835.688 653.857 785.129 652.25 783.819C650.476 782.373 644.375 781.725 641.734 782.702C639.554 783.509 639.5 783.903 639.5 798.979C639.5 807.477 639.218 815.165 638.873 816.064C638.25 817.687 633.354 810.157 624.204 793.506C618.347 782.847 617.826 782.41 610.59 782.091C605.496 781.867 603.916 782.177 602.395 783.698ZM18.025 783.313C14.463 784.239 9.158 788.469 6.391 792.59C0.556999 801.277 0.309998 820.58 5.92 829.467C11.569 838.415 18.07 840.767 36.065 840.374L48.928 840.093L49.85 836.874C50.559 834.398 50.389 833.073 49.113 831.124C47.49 828.648 47.19 828.592 35.227 828.561C22.292 828.528 21.345 828.239 18.236 823.378C15.895 819.717 15.823 805.799 18.119 800.595C20.625 794.915 22.569 794.153 35.974 793.593C47.296 793.12 48.012 792.965 49.113 790.75C49.775 789.417 49.971 787.261 49.568 785.75L48.858 783.093L34.429 782.946C26.493 782.865 19.111 783.03 18.025 783.313ZM426.042 783.31C420.678 784.707 414.936 789.805 412.206 795.593C409.277 801.802 409.035 821.155 411.816 826.743C414.698 832.533 420.286 837.452 425.863 839.108C430.888 840.6 452.66 841.236 455.918 839.986C458.364 839.047 458.09 830.979 455.566 829.628C454.502 829.059 448.406 828.593 442.02 828.593C431.135 828.593 430.261 828.445 428.037 826.221C421.528 819.712 422.395 800.652 429.428 795.644C431.93 793.862 433.816 793.593 443.782 793.593C456.788 793.593 457.823 793.082 457.315 786.913L457 783.093L442.5 782.946C434.525 782.865 427.119 783.029 426.042 783.31ZM92.404 795.166C94.222 796.696 95.92 799.433 96.591 801.916C98.179 807.791 97.296 820.437 95.029 824.274C91.489 830.267 82.004 832.417 75.799 828.633C70.704 825.527 69.128 821.425 69.06 811.093C69.009 803.455 69.338 801.55 71.232 798.504C74.071 793.939 76.614 792.745 83.673 792.661C88.367 792.605 89.875 793.037 92.404 795.166ZM572.401 794.042C577.693 796.779 579 800.07 579 810.666C579 818.187 578.59 821.002 577.088 823.795C573.569 830.338 563.759 832.586 557.398 828.307C552.356 824.916 550.602 820.496 550.564 811.093C550.529 802.127 552.923 796.204 557.521 793.877C560.88 792.177 568.969 792.267 572.401 794.042ZM327.045 796.048C330 799.002 330.114 800.613 327.589 803.732C325.88 805.843 324.712 806.13 316.563 806.443C305.987 806.85 304.5 806.124 304.5 800.552C304.5 793.707 304.674 793.593 315.152 793.593C323.84 793.593 324.786 793.788 327.045 796.048Z" fill="#050505"/>
<path fill-rule="evenodd" clip-rule="evenodd" d="M322 0.661557C320.075 0.873418 312.949 2.18156 306.165 3.56964C262.976 12.4048 222.995 38.5966 196.44 75.4503C188.796 86.0573 176.441 110.565 172.085 123.76C164.852 145.672 164.886 145.274 163.819 220.355C163.289 257.73 163.086 359.465 163.37 446.433C163.876 601.63 163.923 604.639 165.879 609.059C172.332 623.637 188.125 632.627 201.955 629.595C212.663 627.247 222.376 619.709 227.397 609.849C228.913 606.873 229.096 590.302 229.593 410.98C230.192 194.939 230.744 161.418 233.884 150.379C240.5 127.123 256.258 103.854 275.313 89.2003C282.909 83.3591 299.937 74.6988 310.393 71.358C322.285 67.5585 340.456 67.0658 470.5 67.0089L582.5 66.9609L592 69.5002C617.348 76.2758 638.536 89.596 653.471 108.145C664.888 122.325 670.74 133.895 676.068 152.822L679 163.24L678.947 282.737C678.918 348.462 678.524 408.081 678.073 415.227C676.852 434.536 671.319 450.422 659.952 467.261C645.294 488.975 624.859 504.092 598.5 512.722L588.5 515.996L462.801 516.823C339.399 517.634 337.001 517.687 331.599 519.707C317.195 525.092 307.391 541.671 310.088 556.082C312.294 567.869 321.236 578.905 331 581.891C338.724 584.253 414.575 585.033 516.5 583.798L594.5 582.852L605.638 580.294C639.311 572.561 672.552 553.725 695.752 529.232C720.345 503.269 735.702 474.147 742.665 440.27C744.938 429.213 745.226 424.709 746.157 385.746C747.581 326.143 746.482 169.009 744.543 154.898C742.108 137.186 736.602 119.362 727.893 100.999C719.174 82.6176 708.39 67.4306 693.457 52.5084C669.85 28.916 643.135 13.7469 609.338 4.74287L593.5 0.522649L459.5 0.39973C385.8 0.331774 323.925 0.449697 322 0.661557ZM501.25 128.608C499.462 128.847 497.976 129.351 497.946 129.728C497.917 130.105 497.487 177.633 496.992 235.345C496.479 295.084 495.641 344.294 495.045 349.606C493.171 366.317 488.891 380.07 482.313 390.516C478.594 396.423 470.465 402.295 461.226 405.75C448.923 410.35 443.977 410.763 389.581 411.736C354.759 412.359 337.307 413.023 336.581 413.751C335.041 415.296 335.21 467.302 336.761 468.852C338.428 470.518 413.833 471.203 443 469.816C489.26 467.616 508.778 462.336 528.385 446.715C547.889 431.176 560.306 411.746 566.615 386.89C572.219 364.813 572.298 362.828 572.403 241.675C572.456 180.299 572.126 129.708 571.668 129.249C570.82 128.399 507.166 127.821 501.25 128.608ZM275.5 685.947C269.235 687.927 265.554 690.151 262.175 693.996C255.739 701.322 253.777 717.662 257.993 728.825C262.699 741.282 271.5 746.132 287.902 745.306C297.551 744.822 301.396 743.307 307.28 737.671C312.296 732.868 314 726.876 314 714.045C314 705.151 313.686 703.299 311.397 698.708C309.965 695.837 307.279 692.333 305.427 690.922C298.247 685.449 284.374 683.142 275.5 685.947ZM29.75 686.364C28.238 686.538 26.957 686.763 26.903 686.864C26.85 686.965 26.513 695.897 26.153 706.714C25.292 732.646 25.285 732.656 7.75 734.065L0 734.687V738.979V743.273L9.478 743.983C19.495 744.734 25.88 744.111 30 741.982C33.994 739.919 37.724 735.338 38.927 731.019C40.428 725.632 41.382 699.383 40.325 692.559C39.507 687.271 39.354 687.06 35.988 686.563C34.07 686.28 31.262 686.19 29.75 686.364ZM55.755 686.21C51.892 686.574 50.911 687.065 50.474 688.851C50.179 690.058 50.065 702.962 50.219 717.528L50.5 744.01H71C89.41 744.01 91.822 743.815 94.656 742.101C102.869 737.134 104.455 725.202 97.866 717.953C96.012 715.914 96.03 715.794 98.973 710.458C102.559 703.956 102.769 699.444 99.734 694.131C96.077 687.732 92.661 686.611 75.442 686.157C67.224 685.941 58.365 685.965 55.755 686.21ZM326.5 686.465L322.5 687.048L321.953 694.543C321.652 698.665 321.603 711.369 321.844 722.774L322.283 743.51H328.023H333.763L334.467 735.068C334.854 730.424 335.695 726.209 336.335 725.7C336.976 725.191 342.736 724.555 349.136 724.286C367.901 723.498 373 719.556 373 705.837C373 694.087 368.467 688.143 358.76 687.162C349.864 686.265 330.719 685.851 326.5 686.465ZM401.901 686.523C394.892 687.404 388.688 690.02 385.655 693.37C381.795 697.636 381.09 702.213 381.044 723.274L381 743.51H386.852H392.705L393.386 733.829C393.76 728.504 394.523 723.599 395.08 722.927C395.77 722.097 400.83 721.598 410.896 721.366C427.044 720.994 429 720.364 429 715.529C429 710.881 427.226 710.328 410.5 709.767C395.505 709.263 395 709.176 395 707.113C395 704.461 397.401 700.941 400.301 699.342C401.511 698.674 408.004 697.856 414.73 697.522C421.457 697.187 427.297 696.578 427.707 696.168C428.528 695.348 428.745 687.959 427.972 687.186C426.984 686.199 408.265 685.722 401.901 686.523ZM437.842 686.189C435.663 686.807 434.759 700.206 435.187 725.522L435.5 744.01L441.371 743.805C444.6 743.693 447.402 743.442 447.596 743.248C448.489 742.355 448.377 688.527 447.48 687.655C446.278 686.488 440.105 685.549 437.842 686.189ZM469.716 686.221C455.123 686.597 454.918 686.634 453.806 689.073C451.233 694.716 455.456 697.5 466.629 697.53L470.758 697.541L471.17 719.636C471.548 739.924 471.737 741.847 473.482 743.121C475.539 744.625 484.554 745.04 485.401 743.671C485.686 743.21 486.233 732.642 486.616 720.187L487.312 697.541H504H520.689L521.341 711.781C521.699 719.613 521.994 729.957 521.996 734.766L522 743.51H528.5H535L535.004 734.766C535.006 729.957 535.299 719.658 535.655 711.88L536.302 697.739L544.24 697.379C550.752 697.083 552.439 696.661 553.634 695.031C555.017 693.143 554.77 688.978 553.179 687.353C552.365 686.521 490.613 685.684 469.716 686.221ZM562 686.403C559.667 687.081 559.465 687.661 558.971 695.083C558.679 699.457 558.627 712.096 558.853 723.167L559.266 743.298L563.15 743.918C569.872 744.992 571.812 743.946 572.579 738.834C573.558 732.314 572.563 688.71 571.41 687.557C570.025 686.173 564.938 685.549 562 686.403ZM587.5 686.411C584.53 687.053 584.495 687.139 583.971 695.048C583.679 699.442 583.628 712.143 583.856 723.274L584.271 743.51H590.635H597L597.015 726.771C597.024 717.566 597.407 709.44 597.866 708.715C598.439 707.814 601.925 713.07 608.926 725.391C620.195 745.224 620.315 745.334 629.302 743.987L633.702 743.329L634.351 731.271C635.169 716.07 635.194 690.215 634.393 688.129C633.935 686.935 632.344 686.548 627.893 686.548C624.652 686.548 621.935 686.66 621.856 686.798C621.777 686.936 621.44 694.917 621.106 704.536L620.5 722.025L611.59 706.399C606.69 697.805 601.965 689.873 601.09 688.772C599.321 686.546 592.426 685.348 587.5 686.411ZM664.767 686.479C655.15 687.307 650.181 690.434 645.604 698.54C642.631 703.805 642.5 704.521 642.5 715.529C642.5 728.181 643.388 731.004 649.362 737.35C655.396 743.759 656.538 744.029 676.84 743.836C686.928 743.741 695.364 743.479 695.589 743.256C695.813 743.031 696.088 735.803 696.199 727.191C696.343 716.119 696.052 711.184 695.204 710.336C693.677 708.81 669.567 708.568 668.07 710.063C666.241 711.889 665.79 716.912 667.275 718.914C668.285 720.276 670.457 720.97 675.087 721.412L681.5 722.025V727.021V732.018L673.191 732.309C664.902 732.6 664.875 732.593 661.441 729.161L658 725.722V716.078C658 706.207 659.049 702.407 662.583 699.466C663.837 698.424 668.404 697.906 679.566 697.541C687.963 697.266 695.092 696.783 695.407 696.468C696.779 695.096 697.039 689.939 695.812 688.409C694.246 686.456 677.284 685.401 664.767 686.479ZM755.5 686.267C753.265 686.812 750 689.422 750 690.664C750 691.109 745.499 702.03 739.999 714.934C734.498 727.838 729.885 739.434 729.749 740.703C729.532 742.714 730.102 743.127 734.188 743.916C739.862 745.012 743.476 743.172 744.463 738.683C744.813 737.09 745.995 734.825 747.089 733.652C748.883 731.728 750.138 731.518 759.875 731.518H770.673L773.205 737.382L775.737 743.248L781.165 743.925C790.696 745.115 791.685 743.618 787.382 734.516C785.953 731.493 781.97 722.499 778.531 714.529C767.859 689.801 766.214 686.841 762.766 686.151C759.516 685.502 758.583 685.517 755.5 686.267ZM797.5 686.423C794.52 687.056 794.496 687.117 793.849 695.548C792.97 707.014 792.854 729.832 793.637 737.318C794.227 742.959 794.481 743.457 797.053 744.022C798.582 744.357 801.445 744.33 803.416 743.96L807 743.288L807.118 728.16C807.183 719.838 807.537 711.681 807.904 710.032C808.632 706.764 808.094 705.974 824.43 734.266C827.048 738.801 829.5 742.702 829.88 742.937C830.259 743.171 833.285 743.669 836.605 744.045C846.297 745.14 846 746.039 846 715.649C846 686.077 846.034 686.215 838.608 686.215C836.037 686.215 833.426 686.722 832.807 687.34C832.113 688.034 831.454 694.895 831.09 705.194L830.5 721.921L821.144 705.483C815.998 696.443 811.091 688.259 810.239 687.297C808.639 685.491 803.535 685.14 797.5 686.423ZM860.5 686.504L856.5 687.048L855.971 695.042C855.679 699.439 855.626 712.081 855.853 723.135L856.264 743.233L868.711 743.924C893.416 745.296 901.436 742.718 907.308 731.518C910.096 726.203 910.177 725.643 909.775 714.529C909.44 705.276 908.94 702.229 907.208 698.887C904.581 693.815 898.704 688.8 894 687.616C889.726 686.54 866.021 685.752 860.5 686.504ZM146.973 688.198C145.613 689.105 143.037 691.218 141.25 692.891C138.447 695.516 138 696.601 138 700.792C138 708.014 139.841 714.003 142.986 717.015C146.065 719.962 153.646 721.431 166.101 721.492C175.443 721.539 179 722.946 179 726.597C179 731.466 176.375 732.259 158.602 732.756C144.472 733.151 142.551 733.41 141.323 735.088C140.16 736.678 140.279 741.941 141.509 743.32C141.66 743.488 150.945 743.713 162.142 743.819C180.082 743.987 182.891 743.796 185.794 742.212C194.609 737.403 196.682 722.513 189.611 714.802C186.757 711.689 185.707 711.264 178.972 710.485C174.862 710.01 168.208 709.601 164.184 709.577C160.161 709.553 155.998 709.067 154.934 708.498C152.233 707.053 152.433 702.418 155.314 699.713C157.447 697.712 158.656 697.541 170.689 697.541C177.873 697.541 185.195 697.252 186.961 696.899C191.001 696.092 192.837 692.676 191.182 689.046L190.043 686.548H169.744C152.54 686.548 149.068 686.8 146.973 688.198ZM202.337 687.797C201.596 688.983 201.66 742.505 202.404 743.248C202.598 743.442 205.4 743.693 208.629 743.805L214.5 744.01L214.789 734.073C214.947 728.607 215.565 723.548 216.161 722.83C216.894 721.947 219.942 721.525 225.587 721.525C235.161 721.525 236 722.192 236 729.814C236 732.247 236.286 736.324 236.636 738.873L237.272 743.51H243.002H248.733L249.149 722.774C249.377 711.369 249.325 698.665 249.032 694.543L248.5 687.048L242.901 686.753L237.302 686.457L236.617 696.184C236.241 701.534 235.443 706.501 234.844 707.222C234.106 708.111 231.093 708.533 225.5 708.533C219.907 708.533 216.894 708.111 216.156 707.222C215.557 706.501 214.76 701.554 214.386 696.23L213.705 686.548H208.411C205.26 686.548 202.802 687.054 202.337 687.797ZM292.701 698.5C297.615 701.494 299.302 705.727 299.285 715.019C299.26 728.934 295.59 733.517 284.473 733.517C279.63 733.517 278.452 733.123 276.017 730.69C268.48 723.158 269.519 703.394 277.719 698.317C281.498 695.977 288.705 696.065 292.701 698.5ZM84.777 699.097C87.226 700.811 87.789 705.347 85.8 707.334C85.022 708.112 80.978 708.533 74.3 708.533H64V703.704C64 701.046 64.3 698.573 64.667 698.207C65.033 697.84 69.208 697.541 73.944 697.541C80.119 697.541 83.184 697.98 84.777 699.097ZM355.896 699.944C358.661 702.447 358.629 707.236 355.826 710.218C353.854 712.315 352.781 712.531 344.326 712.531H335V706.235C335 702.545 335.518 699.41 336.25 698.662C338.293 696.574 353.25 697.551 355.896 699.944ZM890.102 699.818C893.109 701.833 893.655 702.909 894.851 709.169C896.524 717.935 895.124 726.489 891.406 730.203C889.179 732.43 888.382 732.574 879.758 732.306L870.5 732.018L870.224 716.162C870.035 705.319 870.311 699.869 871.096 698.924C871.881 697.979 874.538 697.541 879.475 697.541C885.338 697.541 887.346 697.971 890.102 699.818ZM760.198 704.786C761.99 707.962 764.998 715.791 764.999 717.278C765 718.138 763.134 718.527 759 718.527C755.166 718.527 753 718.114 753 717.385C753 715.325 757.482 702.582 758.215 702.559C758.608 702.547 759.5 703.55 760.198 704.786ZM84.777 723.081C87.301 724.848 87.699 728.678 85.579 730.797C83.85 732.525 73.978 733.612 68.5 732.678C64.722 732.033 64.482 731.781 64.183 728.154C63.654 721.735 63.957 721.525 73.746 721.525C80.1 721.525 83.174 721.959 84.777 723.081ZM76.009 780.548C68.564 782.066 62.81 785.606 59.277 790.844C55.14 796.975 54.012 801.188 54.006 810.534C53.998 821.439 56.215 827.947 61.863 833.596C67.495 839.228 72.237 840.767 84 840.778C96.969 840.79 104.715 836.676 109.397 827.287C111.708 822.651 111.999 820.885 111.994 811.52C111.991 805.718 111.496 799.174 110.895 796.975C109.296 791.135 101.564 783.981 94.796 782.078C87.336 779.981 81.228 779.484 76.009 780.548ZM552.075 782.206C546.117 784.309 539.595 791.172 537.465 797.581C534.141 807.582 535.92 823.591 541.231 831.467C542.487 833.329 545.925 836.111 548.871 837.649C553.785 840.216 555.132 840.447 565.154 840.447C574.042 840.447 576.798 840.08 579.932 838.482C585.234 835.78 590.754 829.022 592.523 823.07C594.451 816.581 594.408 804.206 592.434 797.564C590.431 790.823 584.25 784.438 577.504 782.141C571.338 780.041 558.112 780.075 552.075 782.206ZM121.012 782.389C119.756 783.239 119.522 787.67 119.512 810.837C119.505 825.929 119.815 838.594 120.201 838.98C120.586 839.365 122.867 839.903 125.27 840.174C132.69 841.009 133 840.197 133 819.889C133 810.309 133.363 802.472 133.807 802.472C134.251 802.472 137.064 806.746 140.057 811.97C155.953 839.711 155.354 838.868 159.867 839.84C162.349 840.375 165.312 840.362 167.255 839.807C170.339 838.927 170.532 838.586 171.141 832.919C171.494 829.639 171.832 817.19 171.891 805.255C171.994 784.763 171.892 783.497 170.066 782.52C167.296 781.039 161.711 781.245 159.441 782.912C157.65 784.227 157.518 785.498 157.727 799.356C157.86 808.127 157.556 814.621 156.996 814.966C155.915 815.633 151.304 808.751 144.427 796.209C137.142 782.922 136.545 782.368 128.966 781.835C125.41 781.585 121.83 781.834 121.012 782.389ZM191.5 782.367C182.252 784.009 178.583 789.557 179.163 801.029C179.472 807.137 179.941 808.78 182.016 811.009C185.621 814.88 188.069 815.543 202.317 816.504C218.57 817.602 219 817.741 219 821.904C219 823.724 218.438 825.655 217.75 826.198C217.063 826.74 208.886 827.456 199.58 827.789C190.274 828.123 182.295 828.759 181.849 829.205C180.16 830.893 179.877 835.951 181.359 837.948C182.751 839.824 184.004 839.947 201.671 839.947C219.769 839.947 220.692 839.85 225.448 837.449C231.557 834.364 234.286 829.617 234.286 822.075C234.286 815.741 231.937 810.45 228.125 808.201C225.084 806.405 211.371 804.492 201.45 804.478C198.089 804.474 194.867 803.938 194.2 803.271C192.419 801.491 192.745 797.73 194.864 795.612C196.485 793.992 198.837 793.688 212.894 793.284C221.786 793.027 229.488 792.39 230.011 791.868C231.5 790.38 232.159 785.141 231.065 783.484C230.256 782.259 226.919 781.955 212.788 781.82C203.28 781.73 193.7 781.976 191.5 782.367ZM238.265 782.215C236.292 783.603 235.704 788.749 237.277 790.869C238.365 792.336 240.353 792.865 246.183 793.239L253.689 793.72L254.347 815.835C254.916 834.941 255.235 838.118 256.694 839.197C258.94 840.859 264.154 840.785 266.518 839.058C268.262 837.783 268.452 835.863 268.828 815.674L269.238 793.678L277.04 793.325C281.33 793.13 285.197 792.615 285.631 792.18C286.371 791.441 286.487 783.637 285.768 782.919C284.963 782.115 239.368 781.439 238.265 782.215ZM293.132 782.304C291.627 783.342 291.304 792.813 291.75 822.708L292 839.447H297.857H303.713L304.381 830.203C305.133 819.812 306.61 817.462 312.388 817.462C316.954 817.462 319.628 819.777 323.149 826.778C329.191 838.794 332.038 841.122 339.205 839.912C344.275 839.057 344.17 837.173 338.5 827.35C336.025 823.062 334 818.603 334 817.441C334 816.28 335.52 813.896 337.378 812.145C341.632 808.136 343.865 799.305 342.108 793.443C340.873 789.324 336.791 784.76 333 783.258C329.632 781.924 294.887 781.093 293.132 782.304ZM353 782.406C351.743 783.25 351.5 786.954 351.5 805.259V827.103L354.184 831.156C358.544 837.737 364.278 839.947 377 839.947C390.283 839.947 395.542 837.789 399.76 830.607L402.492 825.956L402.496 804.687C402.5 781.161 402.6 781.516 396 781.516C389.748 781.516 389.776 781.431 389.059 802.618C388.651 814.67 387.949 822.787 387.195 824.156C385.163 827.845 381.892 829.454 376.424 829.454C372.406 829.454 370.735 828.938 368.726 827.076C365.622 824.202 365.242 821.651 364.634 799.648C364.386 790.675 363.939 783.09 363.641 782.793C362.564 781.716 354.465 781.422 353 782.406ZM460.75 782.481C459.788 783.087 459 784.236 459 785.033C459 785.83 458.55 786.482 458 786.482C457.45 786.482 457 785.583 457 784.483C457 782.569 456.333 782.485 441.196 782.485C425.447 782.485 425.375 782.495 420.783 785.405C418.007 787.165 415.071 790.21 413.396 793.066C410.902 797.317 410.571 798.975 410.181 809.156C409.657 822.852 411.006 827.362 417.387 833.24C423.359 838.742 427.278 839.764 442.78 839.862C453.537 839.931 456.251 839.662 457.066 838.448C458.154 836.827 457.596 830.649 456.239 829.293C455.78 828.834 449.801 828.174 442.952 827.824C429.335 827.129 427.807 826.515 425.362 820.742C423.7 816.818 423.592 807.561 425.148 802.374C427.31 795.161 429.548 794.051 443.198 793.423C453.454 792.951 455.446 792.589 456.621 790.983C457.911 789.22 458.081 789.208 459.25 790.802C460.17 792.055 462.639 792.67 468.595 793.128L476.69 793.75L477.354 815.808C477.719 827.94 478.424 838.272 478.922 838.77C480.23 840.077 488.26 840.695 489.862 839.612C492.111 838.091 492.911 830.913 492.956 811.824L493 793.696L500.598 793.313C509.359 792.87 511.535 791.25 510.412 786.001C510.057 784.343 509.69 782.893 509.596 782.781C509.502 782.669 498.867 782.308 485.963 781.978C469.613 781.56 461.97 781.712 460.75 782.481ZM516.557 782.82C514.956 783.99 514.669 786.179 514.232 800.599C513.957 809.643 514.062 821.867 514.464 827.763C515.306 840.115 516.055 841.115 523.614 839.982L528 839.324V811.012C528 779.803 528.364 781.485 521.609 781.485C519.834 781.485 517.561 782.086 516.557 782.82ZM603.107 782.398C601.034 783.709 600.116 791.328 600.147 806.969C600.186 827.001 601.182 838.32 603.008 839.473C605.001 840.732 610.662 840.697 613.066 839.412C614.865 838.45 615 837.156 615 820.84C615 807.344 615.285 803.399 616.238 803.717C616.919 803.944 620.632 809.77 624.488 816.663C636.391 837.94 637.336 839.232 641.572 840.026C643.623 840.411 646.921 840.326 648.901 839.837L652.5 838.948L653.323 831.453C654.363 821.984 653.45 784.533 652.148 783.232C650.733 781.818 642.758 781.226 641 782.404C639.808 783.203 639.397 786.718 639 799.547C638.407 818.699 639.108 818.793 627.213 797.975C622.444 789.629 618.266 783.486 616.859 782.75C614.139 781.326 605.163 781.097 603.107 782.398ZM14.5 784.321C6.107 789.435 2 798.402 2 811.61C2 825.442 8.098 835.828 17.693 838.336C23.799 839.933 34.941 840.555 42.5 839.72L49.5 838.948L49.8 834.864C50.24 828.861 48.931 828.237 34.484 827.548C18.179 826.771 17.644 826.326 17.16 813.123C16.592 797.621 19.896 793.478 32.828 793.478C43.309 793.478 48.059 792.442 49.216 789.906C49.787 788.654 49.963 786.471 49.608 785.057L48.962 782.485L33.231 782.489C19.753 782.492 17.07 782.754 14.5 784.321ZM90.915 793.933C95.198 796.147 97.009 801.009 96.944 810.118C96.913 814.432 96.35 819.519 95.694 821.424C92.341 831.153 76.126 832.397 71.412 823.288C69.266 819.141 68.38 805.876 69.935 801.17C71.843 795.392 76.099 792.478 82.626 792.478C85.636 792.478 89.366 793.133 90.915 793.933ZM573.634 794.56C577.818 797.143 578.5 799.514 578.5 811.466C578.5 819.141 578.136 821.496 576.602 823.759C571.308 831.563 558.832 831.369 553.243 823.395C552.125 821.799 551.462 818.245 551.179 812.32C550.824 804.903 551.082 802.933 552.9 799.18C554.076 796.751 556.043 794.281 557.269 793.689C561.203 791.793 569.902 792.254 573.634 794.56ZM326.686 795.65C329.528 798.319 329.63 800.843 327 803.471C325.317 805.153 323.667 805.47 316.582 805.47C305.375 805.47 305 805.277 305 799.534C305 796.935 305.3 794.51 305.667 794.144C306.033 793.777 310.392 793.478 315.352 793.478C323.236 793.478 324.662 793.751 326.686 795.65Z" fill="#710101"/>
<path d="M496.863 128.553C494.868 129.12 494.349 148.437 493.446 255.832C492.75 338.682 492.114 353.454 488.67 366.829C486.074 376.906 480.866 388.373 476.562 393.485C471.116 399.953 457.376 406.778 445.872 408.73C442.367 409.324 415.92 410.444 387.101 411.218C351.967 412.163 334.339 412.991 333.601 413.731C332.042 415.294 332.193 467.285 333.761 468.852C335.428 470.518 410.833 471.203 440 469.816C486.26 467.616 505.778 462.336 525.385 446.715C550.299 426.866 563.958 400.003 568.071 362.761C569.54 349.457 570.1 130.683 568.668 129.249C567.808 128.387 499.771 127.728 496.863 128.553Z" fill="#710101"/>
<path fill-rule="evenodd" clip-rule="evenodd" d="M305.471 3.01002C262.401 11.8712 225.639 34.5603 197.815 69.4543C182.741 88.3578 167.944 120.434 163.469 143.905C160.785 157.986 159.812 246.311 160.278 433.732C160.7 603.853 160.704 604.145 162.787 608.85C169.335 623.643 185.033 632.649 198.955 629.596C209.628 627.255 219.378 619.706 224.354 609.932C225.811 607.07 226.064 586.514 226.989 395.573C227.552 279.416 228.435 177.633 228.951 169.389C229.977 153.004 231.752 145.621 237.661 133.153C245.184 117.282 259.76 98.795 272.004 89.597C278.887 84.4264 296.789 75.1285 305.684 72.1045C317.355 68.1371 327.679 67.8054 456 67.2807L579.5 66.776L591.433 70.4227C612.589 76.8874 626.751 84.8971 640.776 98.3293C657.631 114.473 666.373 129.567 673.465 154.774L676 163.784L675.928 260.525C675.888 313.732 675.476 372.78 675.011 391.742C674.262 422.287 673.919 427.132 672.004 434.214C667.301 451.61 657.772 467.781 643.536 482.528C629.876 496.68 615.619 505.394 594.5 512.504L585.5 515.533L460 516.495C450.661 516.567 441.98 516.631 433.909 516.69C338.025 517.396 328.168 517.469 322.221 522.327C321.539 522.884 320.909 523.503 320.207 524.194C319.691 524.701 319.136 525.247 318.493 525.834C303.097 539.896 302.664 560.402 317.451 575.166L317.636 575.351C319.216 576.929 320.489 578.201 321.935 579.231C327.939 583.509 336.918 583.612 383.19 584.142L384.5 584.157C412.55 584.479 470.6 584.317 513.5 583.798L591.5 582.852L602.638 580.294C621.88 575.875 641.295 567.676 659.893 556.117C698.755 531.963 729.029 489.058 738.857 444.208C743.482 423.102 743.485 423.007 743.432 292.807C743.378 159.377 743.293 156.926 738.004 136.426C726.576 92.1324 700.4 54.8919 663.075 29.8244C644.917 17.6294 629.165 10.8139 602.36 3.55766L589.22 0L454.36 0.0619592L319.5 0.123918L305.471 3.01002Z" fill="black"/>
</svg>
